<svg xmlns="http://www.w3.org/2000/svg" viewBox="0 0 256 256" width="256" height="256"><title>phone-519</title><style> .s0 { fill: #ffc704 } </style><g><path class="s0" d="m58.5 1.4c-1.1 0-2.3 0.2-3.5 0.7-10.4 4.6-29.4 12.9-37.8 16.2-1.8 0.7-3.4 1.8-4.7 3.2-30.8 35.6 6.8 106.5 61 160.7 40.8 40.7 90.9 72.1 128.4 72.1 12.4 0 23.5-3.4 32.3-11.1 1.5-1.3 2.5-2.9 3.2-4.7 3.3-8.4 11.6-27.4 16.2-37.8 1.7-4.1 0.2-8.8-3.6-11.1l-53.4-31.7c-1.4-0.8-3-1.2-4.5-1.2-1.4 0-2.9 0.3-4.2 1l-36.6 19.7c-1.3 0.7-2.7 1-4.1 1-2.3 0-4.5-0.8-6.2-2.5l-30.6-30.6-30.6-30.6c-2.7-2.7-3.3-6.9-1.5-10.3l19.7-36.6c1.4-2.7 1.4-6-0.2-8.7l-31.7-53.4c-1.6-2.7-4.5-4.3-7.6-4.3zm0 5.6c1.1 0 2.2 0.6 2.8 1.6l31.7 53.4c0.5 1 0.5 2.1 0 3.1l-19.6 36.6c-3.1 5.7-2.1 12.5 2.5 17l30.5 30.6 30.6 30.5c2.7 2.8 6.3 4.3 10.2 4.3 2.3 0 4.7-0.6 6.8-1.7l36.6-19.7q0.7-0.4 1.5-0.4c0.6 0 1.1 0.2 1.6 0.5l53.4 31.7c1.4 0.8 2 2.5 1.3 3.9-4.6 10.6-12.9 29.6-16.2 38.1q-0.7 1.6-1.7 2.4c-7.4 6.5-17.1 9.8-28.6 9.8-33.3 0-81-27-124.4-70.5-27.8-27.8-49.6-58.2-61.2-85.5-8.7-20.5-15.7-48.8 0.5-67.5q0.8-1 2.4-1.6c8.5-3.4 27.5-11.7 38.1-16.3q0.6-0.3 1.2-0.3z"></path></g></svg>